# xmcd
#
# Track frame offsets: 
#        183
#        14415
#        32645
#        51610
#        71583
#        88778
#        105643
#        123408
#        139988
#        157058
#
# Disc length: 2374 seconds
#
# Revision: 9
# Processed by: cddbd v1.5.2PL0 Copyright (c) Steve Scherf et al.
# Submitted via: ExactAudioCopy v0.95b4
#
DISCID=9009440a
DTITLE=Various Artist - Rock, Rhythm and Blues
DYEAR=1989
DGENRE=Pop
TTITLE0=Elton John - I'm Ready
TTITLE1=Rick James - This Magic Moment, Dance With Me
TTITLE2=Michael McDonald - For Your Precious Love
TTITLE3=Chaka Khan - Fever
TTITLE4=Howard Hewett - The Ten Commandments Of Love
TTITLE5=Manhattan Transfer - I Wanna Be Your GIrl
TTITLE6=Randy Travis - It's Just A Matter Of Time
TTITLE7=Pointer Sisters - Mr. Lee
TTITLE8=Christine McVie and Friends - Roll With Me Henry
TTITLE9=El DeBarge - Goodnight My Love
EXTD=corrected - more info
EXTT0=
EXTT1=
EXTT2=
EXTT3=
EXTT4=
EXTT5=
EXTT6=
EXTT7=
EXTT8=
EXTT9=
PLAYORDER=
